<svg width="22" height="22" viewBox="0 0 22 22" fill="none" xmlns="http://www.w3.org/2000/svg">
<path d="M7.3975 11.4978L15.0604 18.799C15.1882 18.9209 15.3581 18.9889 15.5347 18.9889C15.7114 18.9889 15.8813 18.9209 16.0091 18.799L16.0174 18.7907C16.0796 18.7317 16.1291 18.6605 16.1629 18.5817C16.1968 18.5029 16.2142 18.418 16.2142 18.3322C16.2142 18.2464 16.1968 18.1615 16.1629 18.0827C16.1291 18.0038 16.0796 17.9327 16.0174 17.8736L8.80137 10.9986L16.0174 4.12638C16.0796 4.06729 16.1291 3.99616 16.1629 3.91733C16.1968 3.8385 16.2142 3.7536 16.2142 3.66781C16.2142 3.58202 16.1968 3.49713 16.1629 3.4183C16.1291 3.33946 16.0796 3.26834 16.0174 3.20925L16.0091 3.201C15.8813 3.07911 15.7114 3.01112 15.5347 3.01112C15.3581 3.01112 15.1882 3.07911 15.0604 3.201L7.3975 10.5022C7.33011 10.5665 7.27645 10.6437 7.2398 10.7292C7.20314 10.8148 7.18423 10.9069 7.18423 11C7.18423 11.0931 7.20314 11.1852 7.2398 11.2708C7.27645 11.3563 7.33011 11.4335 7.3975 11.4978Z" fill="#444444"/>
</svg>
