<svg width="16" height="20" viewBox="0 0 16 20" fill="none" xmlns="http://www.w3.org/2000/svg">
<path d="M14.8765 14.9151L13.5865 13.6891V8.93716C13.5865 6.01948 11.9465 3.57699 9.08648 2.93073V2.28446C9.08648 1.49564 8.41648 0.858887 7.58648 0.858887C6.75648 0.858887 6.08648 1.49564 6.08648 2.28446V2.93073C3.21648 3.57699 1.58648 6.00997 1.58648 8.93716V13.6891L0.296477 14.9151C-0.333523 15.5138 0.106477 16.5402 0.996477 16.5402H14.1665C15.0665 16.5402 15.5065 15.5138 14.8765 14.9151ZM11.5865 14.6395H3.58648V8.93716C3.58648 6.5802 5.09648 4.66043 7.58648 4.66043C10.0765 4.66043 11.5865 6.5802 11.5865 8.93716V14.6395ZM7.58648 19.3914C8.68648 19.3914 9.58648 18.536 9.58648 17.4906H5.58648C5.58648 18.536 6.47648 19.3914 7.58648 19.3914Z" fill="black"/>
</svg>
