<svg width="22" height="22" viewBox="0 0 22 22" fill="none" xmlns="http://www.w3.org/2000/svg">
<path d="M14.6025 10.5023L6.93963 3.201C6.81177 3.07911 6.6419 3.01112 6.46525 3.01112C6.2886 3.01112 6.11874 3.07911 5.99088 3.201L5.98263 3.20925C5.92043 3.26834 5.8709 3.33946 5.83706 3.4183C5.80321 3.49713 5.78576 3.58202 5.78576 3.66781C5.78576 3.7536 5.80321 3.8385 5.83706 3.91733C5.8709 3.99616 5.92043 4.06729 5.98263 4.12638L13.1986 11.0014L5.98263 17.8736C5.92043 17.9327 5.8709 18.0038 5.83706 18.0827C5.80321 18.1615 5.78576 18.2464 5.78576 18.3322C5.78576 18.418 5.80321 18.5029 5.83706 18.5817C5.8709 18.6605 5.92043 18.7317 5.98263 18.7907L5.99088 18.799C6.11874 18.9209 6.2886 18.9889 6.46525 18.9889C6.6419 18.9889 6.81177 18.9209 6.93963 18.799L14.6025 11.4978C14.6699 11.4335 14.7235 11.3563 14.7602 11.2708C14.7969 11.1852 14.8158 11.0931 14.8158 11C14.8158 10.9069 14.7969 10.8148 14.7602 10.7292C14.7235 10.6437 14.6699 10.5665 14.6025 10.5023Z" fill="#444444"/>
</svg>
