<svg width="590" height="438" viewBox="0 0 590 438" fill="none" xmlns="http://www.w3.org/2000/svg">
<g clip-path="url(#clip0_471_824)">
<path d="M307.432 244.998H266.682V246.387H273.037V259.573H274.352V246.387H299.105V259.573H300.419V246.387H307.432V244.998Z" fill="white"/>
<path d="M322.549 210.991H312.033V222.095H316.908V259.512H318.223V222.095H322.549V210.991Z" fill="white"/>
<path d="M307.512 240.845H266.762V242.234H307.512V240.845Z" fill="white"/>
<path d="M307.512 237.375H266.762V238.763H307.512V237.375Z" fill="white"/>
<path d="M307.512 233.905H266.762V235.293H307.512V233.905Z" fill="white"/>
<path d="M411.937 263.574H410.622C410.622 197.751 359.908 144.2 297.573 144.2C235.238 144.2 184.524 197.751 184.524 263.574H183.21C183.21 196.986 234.513 142.812 297.573 142.812C360.634 142.812 411.937 196.986 411.937 263.574Z" fill="white"/>
<path d="M107.462 226.948C166.812 226.948 214.924 176.144 214.924 113.474C214.924 50.804 166.812 0 107.462 0C48.1125 0 0 50.804 0 113.474C0 176.144 48.1125 226.948 107.462 226.948Z" fill="#5C2DCB"/>
<path opacity="0.2" d="M187.399 37.6824C197.423 62.4416 198.783 90.1578 191.236 115.878C183.688 141.599 167.726 163.647 146.201 178.084C124.676 192.521 98.9901 198.406 73.7344 194.686C48.4786 190.966 25.2982 177.885 8.33545 157.78C14.4587 172.907 23.6234 186.447 35.1943 197.463C46.7653 208.478 60.466 216.705 75.3472 221.575C90.2283 226.444 105.934 227.839 121.376 225.662C136.819 223.486 151.628 217.79 164.779 208.97C177.93 200.15 189.107 188.416 197.537 174.581C205.967 160.747 211.448 145.143 213.599 128.849C215.751 112.556 214.522 95.964 209.998 80.2221C205.474 64.4802 197.763 49.9651 187.399 37.6824Z" fill="white"/>
<path d="M107.757 113.474H108.052L113.366 435.192H102.148L107.757 113.474Z" fill="white"/>
<path d="M127.324 288.712L124.849 283.746L107.085 293.622L109.561 298.587L127.324 288.712Z" fill="white"/>
<path d="M503.023 253.459C551.059 253.459 590 212.339 590 161.616C590 110.893 551.059 69.7734 503.023 69.7734C454.987 69.7734 416.046 110.893 416.046 161.616C416.046 212.339 454.987 253.459 503.023 253.459Z" fill="#5C2DCB"/>
<path opacity="0.2" d="M567.722 100.272C575.835 120.312 576.936 142.745 570.827 163.562C564.719 184.379 551.799 202.225 534.377 213.91C516.955 225.594 496.166 230.357 475.725 227.347C455.284 224.336 436.522 213.749 422.793 197.476C427.749 209.719 435.167 220.678 444.532 229.594C453.897 238.51 464.986 245.169 477.03 249.11C489.075 253.051 501.787 254.179 514.285 252.418C526.784 250.656 538.77 246.046 549.414 238.908C560.058 231.769 569.104 222.272 575.927 211.075C582.75 199.877 587.186 187.248 588.928 174.06C590.669 160.873 589.675 147.444 586.013 134.703C582.351 121.962 576.11 110.214 567.722 100.272Z" fill="white"/>
<path d="M503.262 161.616H503.501L507.802 422.004H498.722L503.262 161.616Z" fill="white"/>
<path d="M519.099 303.448L517.095 299.43L502.718 307.423L504.722 311.441L519.099 303.448Z" fill="white"/>
<path d="M246.363 240.703C253.925 240.703 260.055 234.23 260.055 226.245C260.055 218.26 253.925 211.787 246.363 211.787C238.801 211.787 232.67 218.26 232.67 226.245C232.67 234.23 238.801 240.703 246.363 240.703Z" fill="#5C2DCB"/>
<path opacity="0.2" d="M256.548 216.588C257.825 219.743 257.998 223.274 257.037 226.551C256.075 229.828 254.041 232.638 251.299 234.477C248.556 236.317 245.283 237.066 242.065 236.592C238.847 236.118 235.894 234.452 233.733 231.89C234.513 233.817 235.681 235.543 237.155 236.946C238.629 238.35 240.375 239.398 242.271 240.018C244.167 240.639 246.168 240.816 248.136 240.539C250.103 240.262 251.99 239.536 253.666 238.412C255.341 237.288 256.766 235.793 257.84 234.031C258.914 232.268 259.612 230.28 259.886 228.204C260.16 226.128 260.004 224.014 259.427 222.008C258.851 220.002 257.868 218.153 256.548 216.588Z" fill="white"/>
<path d="M246.4 226.245H246.438L247.115 267.236H245.686L246.4 226.245Z" fill="white"/>
<path d="M248.893 248.573L248.578 247.94L246.315 249.198L246.63 249.831L248.893 248.573Z" fill="white"/>
<path d="M372.885 216.66C392.245 216.66 407.939 200.088 407.939 179.645C407.939 159.203 392.245 142.631 372.885 142.631C353.526 142.631 337.832 159.203 337.832 179.645C337.832 200.088 353.526 216.66 372.885 216.66Z" fill="#5C2DCB"/>
<path opacity="0.2" d="M398.96 154.923C402.23 162.999 402.673 172.04 400.212 180.43C397.75 188.82 392.543 196.012 385.522 200.721C378.5 205.43 370.122 207.35 361.884 206.136C353.646 204.923 346.084 200.656 340.551 194.098C342.549 199.032 345.538 203.449 349.312 207.042C353.087 210.635 357.556 213.319 362.41 214.907C367.264 216.495 372.387 216.95 377.424 216.24C382.461 215.531 387.292 213.673 391.582 210.796C395.871 207.919 399.517 204.091 402.267 199.578C405.017 195.066 406.805 189.976 407.506 184.661C408.208 179.346 407.808 173.934 406.332 168.799C404.856 163.664 402.341 158.93 398.96 154.923Z" fill="white"/>
<path d="M372.982 179.646H373.078L374.812 284.587H371.152L372.982 179.646Z" fill="white"/>
<path d="M379.364 236.806L378.557 235.187L372.762 238.408L373.57 240.028L379.364 236.806Z" fill="white"/>
<path d="M131.553 419.176C131.553 419.176 132.007 409.133 141.311 410.301L131.553 419.176Z" fill="white"/>
<path d="M128.924 409.619C131.496 409.619 133.581 407.418 133.581 404.702C133.581 401.986 131.496 399.784 128.924 399.784C126.352 399.784 124.267 401.986 124.267 404.702C124.267 407.418 126.352 409.619 128.924 409.619Z" fill="#5C2DCB"/>
<path d="M129.481 412.982H128.166V422.699H129.481V412.982Z" fill="white"/>
<path d="M164.416 396.273C164.416 396.273 164.87 386.23 174.174 387.398L164.416 396.273Z" fill="white"/>
<path d="M161.787 386.716C164.359 386.716 166.444 384.515 166.444 381.799C166.444 379.083 164.359 376.881 161.787 376.881C159.215 376.881 157.13 379.083 157.13 381.799C157.13 384.515 159.215 386.716 161.787 386.716Z" fill="#5C2DCB"/>
<path d="M162.344 390.079H161.029V399.796H162.344V390.079Z" fill="white"/>
<path d="M263.478 318.572C263.478 318.572 263.838 310.596 271.228 311.523L263.478 318.572Z" fill="white"/>
<path d="M261.39 310.982C263.432 310.982 265.088 309.233 265.088 307.076C265.088 304.919 263.432 303.171 261.39 303.171C259.347 303.171 257.691 304.919 257.691 307.076C257.691 309.233 259.347 310.982 261.39 310.982Z" fill="#5C2DCB"/>
<path d="M261.832 313.653H260.788V321.37H261.832V313.653Z" fill="white"/>
<path d="M408.075 293.587C408.075 293.587 408.436 285.611 415.826 286.538L408.075 293.587Z" fill="white"/>
<path d="M405.987 285.997C408.03 285.997 409.686 284.248 409.686 282.091C409.686 279.934 408.03 278.186 405.987 278.186C403.944 278.186 402.288 279.934 402.288 282.091C402.288 284.248 403.944 285.997 405.987 285.997Z" fill="#5C2DCB"/>
<path d="M406.429 288.668H405.385V296.385H406.429V288.668Z" fill="white"/>
<path d="M270.05 339.393C270.05 339.393 270.411 331.417 277.801 332.344L270.05 339.393Z" fill="white"/>
<path d="M267.962 331.803C270.005 331.803 271.661 330.054 271.661 327.897C271.661 325.74 270.005 323.992 267.962 323.992C265.919 323.992 264.263 325.74 264.263 327.897C264.263 330.054 265.919 331.803 267.962 331.803Z" fill="#5C2DCB"/>
<path d="M268.404 334.474H267.36V342.191H268.404V334.474Z" fill="white"/>
<path d="M254.276 354.662C254.276 354.662 254.637 346.686 262.027 347.613L254.276 354.662Z" fill="white"/>
<path d="M252.188 347.071C254.231 347.071 255.887 345.323 255.887 343.166C255.887 341.009 254.231 339.26 252.188 339.26C250.145 339.26 248.489 341.009 248.489 343.166C248.489 345.323 250.145 347.071 252.188 347.071Z" fill="#5C2DCB"/>
<path d="M252.63 349.743H251.586V357.46H252.63V349.743Z" fill="white"/>
<path d="M430.422 306.774C430.422 306.774 430.783 298.798 438.173 299.725L430.422 306.774Z" fill="white"/>
<path d="M428.334 299.183C430.377 299.183 432.033 297.435 432.033 295.278C432.033 293.121 430.377 291.372 428.334 291.372C426.291 291.372 424.635 293.121 424.635 295.278C424.635 297.435 426.291 299.183 428.334 299.183Z" fill="#5C2DCB"/>
<path d="M428.776 301.854H427.732V309.572H428.776V301.854Z" fill="white"/>
<path d="M217.469 324.125C217.469 324.125 217.83 316.148 225.22 317.075L217.469 324.125Z" fill="white"/>
<path d="M215.381 316.534C217.424 316.534 219.08 314.786 219.08 312.629C219.08 310.471 217.424 308.723 215.381 308.723C213.339 308.723 211.683 310.471 211.683 312.629C211.683 314.786 213.339 316.534 215.381 316.534Z" fill="#5C2DCB"/>
<path d="M215.824 319.205H214.78V326.923H215.824V319.205Z" fill="white"/>
<path d="M388.357 284.565C388.357 284.565 388.718 276.589 396.108 277.516L388.357 284.565Z" fill="white"/>
<path d="M386.269 276.974C388.312 276.974 389.968 275.226 389.968 273.069C389.968 270.912 388.312 269.163 386.269 269.163C384.227 269.163 382.571 270.912 382.571 273.069C382.571 275.226 384.227 276.974 386.269 276.974Z" fill="#5C2DCB"/>
<path d="M386.712 279.646H385.667V287.363H386.712V279.646Z" fill="white"/>
<path d="M74.3711 421.258C74.3711 421.258 74.825 411.215 84.1295 412.383L74.3711 421.258Z" fill="white"/>
<path d="M71.7418 411.701C74.3137 411.701 76.3987 409.5 76.3987 406.784C76.3987 404.068 74.3137 401.866 71.7418 401.866C69.1699 401.866 67.085 404.068 67.085 406.784C67.085 409.5 69.1699 411.701 71.7418 411.701Z" fill="#5C2DCB"/>
<path d="M72.2986 415.064H70.9841V424.781H72.2986V415.064Z" fill="white"/>
<path d="M527.224 418.482C527.224 418.482 527.678 408.439 536.983 409.607L527.224 418.482Z" fill="white"/>
<path d="M524.595 408.925C527.167 408.925 529.252 406.724 529.252 404.008C529.252 401.292 527.167 399.09 524.595 399.09C522.023 399.09 519.938 401.292 519.938 404.008C519.938 406.724 522.023 408.925 524.595 408.925Z" fill="#5C2DCB"/>
<path d="M525.152 412.288H523.837V422.005H525.152V412.288Z" fill="white"/>
<path d="M489.103 394.885C489.103 394.885 489.557 384.842 498.861 386.01L489.103 394.885Z" fill="white"/>
<path d="M486.474 385.328C489.046 385.328 491.131 383.127 491.131 380.411C491.131 377.695 489.046 375.493 486.474 375.493C483.902 375.493 481.817 377.695 481.817 380.411C481.817 383.127 483.902 385.328 486.474 385.328Z" fill="#5C2DCB"/>
<path d="M487.031 388.691H485.716V398.408H487.031V388.691Z" fill="white"/>
<path d="M483.845 430.28C483.845 430.28 484.299 420.238 493.603 421.405L483.845 430.28Z" fill="white"/>
<path d="M481.216 420.724C483.788 420.724 485.873 418.522 485.873 415.806C485.873 413.09 483.788 410.889 481.216 410.889C478.644 410.889 476.559 413.09 476.559 415.806C476.559 418.522 478.644 420.724 481.216 420.724Z" fill="#5C2DCB"/>
<path d="M481.773 424.087H480.458V433.803H481.773V424.087Z" fill="white"/>
<path d="M81.937 437.775C81.937 437.775 288.974 380.171 287.002 321.178C283.388 304.868 258.412 300.704 258.412 300.704C258.412 300.704 199.258 292.376 231.464 272.249C263.67 252.122 351.743 256.98 351.743 256.98C351.743 256.98 261.041 272.249 301.134 280.577C333.339 282.659 374.747 291.682 374.747 291.682C374.747 291.682 458.876 310.421 470.707 356.227C482.538 402.033 472.679 437.428 472.679 437.428L81.937 437.775Z" fill="#BA9DFF"/>
<path d="M307.436 438L306.661 436.856C307.756 436.029 308.835 435.207 309.898 434.389L310.682 435.526C309.615 436.346 308.533 437.17 307.436 438Z" fill="#5C2DCB"/>
<path d="M317.1 430.493L316.296 429.373C318.448 427.651 320.568 425.92 322.597 424.226L323.423 425.329C321.387 427.029 319.259 428.767 317.1 430.493ZM329.637 420.015L328.786 418.933C330.869 417.105 332.906 415.269 334.84 413.475L335.72 414.531C333.776 416.334 331.729 418.179 329.637 420.015ZM341.646 408.855L340.734 407.829C342.723 405.86 344.639 403.889 346.432 401.969L347.38 402.957C345.576 404.889 343.646 406.873 341.646 408.855ZM352.874 396.8L351.883 395.861C353.709 393.712 355.437 391.561 357.017 389.466L358.059 390.342C356.462 392.458 354.718 394.631 352.874 396.8ZM362.833 383.532L361.733 382.739C363.281 380.343 364.678 377.951 365.885 375.629L367.053 376.307C365.826 378.667 364.406 381.098 362.833 383.532ZM370.492 368.612L369.252 368.099C370.218 365.525 370.975 362.868 371.514 360.159L372.819 360.442C372.265 363.23 371.486 365.964 370.492 368.612ZM372.27 351.948C372.231 349.214 371.871 346.496 371.199 343.855L372.486 343.488C373.186 346.241 373.561 349.074 373.602 351.924L372.27 351.948ZM368.285 336.263C367.02 333.85 365.536 331.574 363.852 329.466L364.873 328.564C366.613 330.742 368.147 333.094 369.453 335.587L368.285 336.263ZM358.348 323.53C356.369 321.689 354.295 319.964 352.137 318.363L352.906 317.215C355.104 318.845 357.216 320.603 359.232 322.478L358.348 323.53ZM345.462 313.836C343.283 312.484 340.933 311.135 338.477 309.826L339.077 308.57C341.558 309.892 343.934 311.256 346.137 312.623L345.462 313.836ZM331.278 306.231C328.959 305.143 326.49 304.048 323.938 302.976L324.431 301.67C326.998 302.748 329.484 303.85 331.819 304.945L331.278 306.231ZM316.469 299.987C314.096 299.078 311.559 298.145 308.929 297.215L309.352 295.881C311.992 296.816 314.539 297.752 316.923 298.664L316.469 299.987ZM301.33 294.609C299.008 293.836 296.51 293.022 293.69 292.12L294.076 290.774C296.9 291.677 299.405 292.493 301.73 293.267L301.33 294.609ZM286.025 289.691C283.331 288.84 280.762 288.027 278.357 287.245L278.749 285.9C281.151 286.682 283.716 287.494 286.407 288.343L286.025 289.691ZM270.718 284.636C268.155 283.743 265.65 282.678 263.216 281.447L263.815 280.191C266.195 281.394 268.647 282.434 271.154 283.306L270.718 284.636ZM260.659 275.416L259.709 274.43C260.924 273.127 263.326 271.852 267.053 270.532L267.476 271.866C264.001 273.096 261.708 274.291 260.659 275.416ZM275.096 269.575L274.774 268.21C277.078 267.604 279.702 266.97 282.574 266.326L282.851 267.702C279.994 268.342 277.385 268.973 275.096 269.575ZM290.66 266.045L290.411 264.664C292.865 264.168 295.508 263.655 298.268 263.139L298.5 264.524C295.747 265.039 293.109 265.551 290.66 266.045ZM306.358 263.095L306.138 261.708C308.648 261.263 311.275 260.809 314.018 260.344L314.228 261.733C311.488 262.197 308.864 262.651 306.358 263.095Z" fill="#5C2DCB"/>
<path d="M322.26 260.398L322.056 259.008C323.351 258.796 324.669 258.583 326.009 258.367L326.21 259.757C324.87 259.973 323.553 260.187 322.26 260.398Z" fill="#5C2DCB"/>
<path d="M351.74 117.53L357.791 112.42C353.09 111.872 351.159 114.579 350.369 116.722C346.697 115.111 342.699 117.222 342.699 117.222L354.805 121.862C354.194 120.14 353.131 118.637 351.74 117.53Z" fill="white"/>
<path d="M239.349 157.09L245.399 151.98C240.699 151.432 238.767 154.139 237.977 156.281C234.305 154.671 230.307 156.781 230.307 156.781L242.413 161.422C241.803 159.7 240.74 158.197 239.349 157.09Z" fill="white"/>
<path d="M268.925 75.1938L274.976 70.0838C270.275 69.5362 268.344 72.2431 267.554 74.3856C263.882 72.7755 259.884 74.8856 259.884 74.8856L271.99 79.5264C271.379 77.8039 270.316 76.301 268.925 75.1938Z" fill="white"/>
<path d="M334.7 302.717C334.7 302.717 329.46 302.717 328.877 306.099C328.295 309.481 327.421 346.373 328.004 350.985C328.586 355.596 328.586 354.674 328.586 354.674C328.586 354.674 327.425 363.437 330.044 363.821C332.662 364.204 332.662 353.752 332.662 353.752L334.7 316.244V302.717Z" fill="#9E616A"/>
<path d="M357.41 302.717C357.41 302.717 362.651 302.717 363.233 306.099C363.815 309.481 364.689 346.373 364.106 350.985C363.524 355.596 363.524 354.674 363.524 354.674C363.524 354.674 364.685 363.437 362.066 363.821C359.448 364.204 359.448 353.752 359.448 353.752L357.41 316.244V302.717Z" fill="#9E616A"/>
<path d="M333.827 431.226H331.498C330.81 431.226 330.128 431.369 329.492 431.647C328.856 431.925 328.279 432.333 327.792 432.846C327.305 433.36 326.919 433.97 326.656 434.642C326.393 435.313 326.257 436.033 326.257 436.759L340.523 436.76V429.688H333.827V431.226Z" fill="white"/>
<path d="M356.245 431.226H358.574C359.964 431.226 361.297 431.809 362.28 432.846C363.263 433.884 363.815 435.292 363.815 436.759L349.549 436.76V429.688H356.245V431.226Z" fill="white"/>
<path d="M343.726 295.646C347.907 295.646 351.296 292.067 351.296 287.653C351.296 283.238 347.907 279.659 343.726 279.659C339.545 279.659 336.156 283.238 336.156 287.653C336.156 292.067 339.545 295.646 343.726 295.646Z" fill="#9E616A"/>
<path d="M341.979 291.957C341.979 291.957 341.106 302.102 339.941 303.025C338.776 303.947 352.169 302.41 352.169 302.41C352.169 302.41 347.511 295.031 348.384 292.572C349.258 290.112 341.979 291.957 341.979 291.957Z" fill="#9E616A"/>
<path d="M359.157 302.717C359.157 302.717 343.144 295.646 332.662 302.717C332.662 302.717 330.042 309.788 332.08 313.785C334.118 317.782 337.321 327.312 334.118 333.768C330.915 340.224 334.409 337.457 334.409 337.457C334.409 337.457 330.333 354.674 329.751 368.201C329.169 381.728 331.498 430.303 333.245 430.611C334.992 430.918 340.523 431.533 341.106 430.611C341.688 429.688 345.764 365.434 345.764 365.434C345.764 365.434 347.511 431.226 349.258 431.226C351.005 431.226 355.663 431.226 356.537 429.688C357.41 428.151 364.689 368.816 362.068 356.519C359.448 344.221 357.701 338.072 357.701 338.072C357.701 338.072 360.904 335.92 360.03 334.691C359.157 333.461 354.79 320.241 356.828 318.089C358.866 315.937 359.157 302.717 359.157 302.717Z" fill="black"/>
<path d="M348.53 295.748C355.283 295.748 360.758 289.967 360.758 282.835C360.758 275.704 355.283 269.923 348.53 269.923C341.776 269.923 336.302 275.704 336.302 282.835C336.302 289.967 341.776 295.748 348.53 295.748Z" fill="black"/>
<path d="M356.166 276.371C354.105 275.86 352.31 274.53 351.153 272.659C349.996 270.787 349.565 268.517 349.951 266.319C349.915 266.452 349.881 266.585 349.851 266.72C349.353 268.965 349.72 271.328 350.87 273.288C352.021 275.248 353.861 276.645 355.987 277.172C358.113 277.7 360.351 277.314 362.207 276.101C364.064 274.887 365.389 272.944 365.89 270.7C365.92 270.564 365.946 270.429 365.97 270.294C365.388 272.443 364.045 274.273 362.22 275.405C360.394 276.536 358.226 276.882 356.166 276.371Z" fill="white"/>
<path d="M356.663 278.053C359.968 278.053 362.648 275.224 362.648 271.735C362.648 268.245 359.968 265.416 356.663 265.416C353.359 265.416 350.679 268.245 350.679 271.735C350.679 275.224 353.359 278.053 356.663 278.053Z" fill="black"/>
</g>
<defs>
<clipPath id="clip0_471_824">
<rect width="590" height="438" fill="white"/>
</clipPath>
</defs>
</svg>
