<svg width="23" height="23" viewBox="0 0 23 23" fill="none" xmlns="http://www.w3.org/2000/svg">
<path d="M15.1198 19.2322C13.9244 18.3769 12.5076 17.9146 11.0687 17.9146C9.14276 17.9146 7.32752 18.6543 5.9993 20.0181C5.29091 20.7578 4.73749 21.6131 4.38329 22.6071L4.22833 23H7.34966L7.43821 22.8613C7.59317 22.6071 7.7924 22.3528 8.01377 22.1448C8.81071 21.3357 9.89542 20.8734 11.0908 20.8734C12.5297 20.8734 13.858 21.6131 14.677 22.8613L14.7656 22.9769H17.909L17.7098 22.6071C17.1785 21.2433 16.2709 20.0875 15.1198 19.2322Z" fill="white"/>
<path d="M2.85568 6.24128C2.1473 5.50158 1.32822 4.92369 0.37633 4.55384L0 4.39203V7.65133L0.132822 7.74379C0.37633 7.9056 0.619838 8.11364 0.819072 8.34479C1.59387 9.17695 2.03661 10.3096 2.03661 11.5579C2.03661 13.0604 1.32822 14.4473 0.132822 15.3026L0 15.3719V18.6543L0.37633 18.4925C1.68242 17.9378 2.81141 16.99 3.60834 15.788C4.42742 14.5167 4.87016 13.0604 4.87016 11.5347C4.87016 9.52369 4.16177 7.62821 2.85568 6.24128Z" fill="white"/>
<path d="M7.01756 3.79095C8.21296 4.64623 9.62974 5.10854 11.0686 5.10854C12.9946 5.10854 14.8098 4.36884 16.138 3.00503C16.8464 2.26533 17.3999 1.41005 17.754 0.41608L17.909 0.0231156H14.7877L14.6991 0.161809C14.5442 0.41608 14.3449 0.647236 14.1457 0.878392C13.3488 1.68744 12.2419 2.12663 11.0686 2.12663C9.62974 2.12663 8.30151 1.38693 7.48244 0.138693L7.39389 0H4.25043L4.40539 0.41608C4.93668 1.7799 5.8443 2.95879 7.01756 3.79095Z" fill="white"/>
<path d="M22.004 7.7669L22.1147 7.67444V4.39203L21.7383 4.55384C20.4322 5.10861 19.3033 6.05635 18.5063 7.25836C17.6872 8.5066 17.2445 9.986 17.2445 11.5116C17.2445 13.5227 17.9529 15.4182 19.259 16.8051C19.9674 17.5448 20.7864 18.1227 21.7383 18.4925L22.1147 18.6543V15.395L21.9818 15.3026C21.7383 15.1408 21.4948 14.9327 21.2956 14.7016C20.5208 13.8694 20.0781 12.7368 20.0781 11.4885C20.1002 10.0091 20.8086 8.59906 22.004 7.7669Z" fill="white"/>
<path d="M13.8797 11.5346C13.8797 13.1758 12.5957 14.5165 11.024 14.5165C9.45227 14.5165 8.19046 13.1758 8.19046 11.5346C8.19046 9.89341 9.47441 8.5527 11.0461 8.5527C12.5957 8.57582 13.8797 9.89341 13.8797 11.5346Z" fill="white"/>
</svg>
