<svg width="23" height="23" viewBox="0 0 23 23" fill="none" xmlns="http://www.w3.org/2000/svg">
<path d="M15.12 19.2321C13.9246 18.3769 12.5078 17.9146 11.0689 17.9146C9.14295 17.9146 7.32771 18.6543 5.99948 20.0181C5.2911 20.7578 4.73767 21.613 4.38347 22.607L4.22852 23H7.34984L7.43839 22.8613C7.59335 22.607 7.79259 22.3527 8.01396 22.1447C8.81089 21.3357 9.89561 20.8733 11.091 20.8733C12.5299 20.8733 13.8581 21.613 14.6772 22.8613L14.7658 22.9769H17.9092L17.71 22.607C17.1787 21.2432 16.2711 20.0874 15.12 19.2321Z" fill="#1A1545"/>
<path d="M2.85568 6.24134C2.1473 5.50164 1.32822 4.92375 0.37633 4.5539L0 4.39209V7.65139L0.132822 7.74385C0.37633 7.90566 0.619838 8.1137 0.819072 8.34485C1.59387 9.17701 2.03661 10.3097 2.03661 11.5579C2.03661 13.0604 1.32822 14.4474 0.132822 15.3026L0 15.372V18.6544L0.37633 18.4926C1.68242 17.9378 2.81141 16.9901 3.60834 15.7881C4.42742 14.5167 4.87016 13.0604 4.87016 11.5348C4.87016 9.52375 4.16177 7.62827 2.85568 6.24134Z" fill="#1A1545"/>
<path d="M7.01762 3.79096C8.21303 4.64623 9.6298 5.10854 11.0687 5.10854C12.9946 5.10854 14.8099 4.36884 16.1381 3.00503C16.8465 2.26533 17.3999 1.41005 17.7541 0.41608L17.9091 0.0231156H14.7877L14.6992 0.161809C14.5442 0.41608 14.345 0.647236 14.1458 0.878392C13.3488 1.68744 12.242 2.12663 11.0687 2.12663C9.6298 2.12663 8.30157 1.38693 7.4825 0.138693L7.39395 0H4.25049L4.40545 0.41608C4.93674 1.7799 5.84436 2.95879 7.01762 3.79096Z" fill="#1A1545"/>
<path d="M22.0041 7.76696L22.1148 7.6745V4.39209L21.7385 4.5539C20.4324 5.10867 19.3034 6.05641 18.5064 7.25842C17.6874 8.50666 17.2446 9.98606 17.2446 11.5117C17.2446 13.5227 17.953 15.4182 19.2591 16.8052C19.9675 17.5449 20.7866 18.1227 21.7385 18.4926L22.1148 18.6544V15.3951L21.982 15.3026C21.7385 15.1408 21.4949 14.9328 21.2957 14.7016C20.5209 13.8695 20.0782 12.7368 20.0782 11.4886C20.1003 10.0092 20.8087 8.59913 22.0041 7.76696Z" fill="#1A1545"/>
<path d="M13.8797 11.5346C13.8797 13.1758 12.5957 14.5166 11.024 14.5166C9.45224 14.5166 8.19043 13.1758 8.19043 11.5346C8.19043 9.89344 9.47438 8.55273 11.0461 8.55273C12.5957 8.57585 13.8797 9.89344 13.8797 11.5346Z" fill="#1A1545"/>
</svg>
