<svg width="161" height="282" viewBox="0 0 161 282" fill="none" xmlns="http://www.w3.org/2000/svg">
<g clip-path="url(#clip0_384_3143)">
<path d="M64.4521 161.434C45.892 161.434 24.5616 140.859 5.68962 150.635C-51.4499 180.234 -43.5843 130.705 -60 112.285L-59.4611 111.205C-41.3482 127.429 -18.7337 140.63 5.93774 149.379C28.233 157.286 50.6955 160.95 70.8885 159.983L70.9236 161.281C68.7911 161.384 66.6339 161.435 64.4521 161.434Z" fill="#F2F2F2"/>
<path d="M37.6144 10.394C39.7571 10.394 41.494 8.06724 41.494 5.19701C41.494 2.32678 39.7571 0 37.6144 0C35.4718 0 33.7349 2.32678 33.7349 5.19701C33.7349 8.06724 35.4718 10.394 37.6144 10.394Z" fill="#E6E6E6"/>
<path d="M107.167 191.837L102.656 164.734C102.565 164.185 102.696 163.623 103.02 163.17C103.344 162.718 103.834 162.412 104.383 162.32L124.873 158.917C125.422 158.826 125.985 158.957 126.438 159.28C126.891 159.604 127.197 160.093 127.289 160.642L131.8 187.745C131.891 188.294 131.76 188.856 131.436 189.309C131.113 189.761 130.622 190.067 130.073 190.159L109.583 193.562C109.034 193.653 108.471 193.522 108.018 193.199C107.565 192.876 107.259 192.386 107.167 191.837Z" fill="#3F3D56"/>
<path d="M107.376 183.39L104.476 165.965C104.391 165.451 104.514 164.925 104.817 164.501C105.12 164.077 105.579 163.791 106.093 163.705L123.703 160.78C124.217 160.695 124.744 160.817 125.168 161.12C125.593 161.423 125.879 161.882 125.965 162.395L129.98 186.514C130.065 187.028 129.942 187.554 129.639 187.978C129.336 188.402 128.877 188.688 128.363 188.774L117.454 190.586C115.163 190.964 112.815 190.419 110.926 189.07C109.036 187.721 107.76 185.678 107.376 183.39Z" fill="white"/>
<path d="M108.137 170.353C108.054 169.851 108.173 169.337 108.47 168.923C108.766 168.509 109.214 168.229 109.717 168.145L121.933 166.116C122.182 166.074 122.436 166.082 122.682 166.139C122.928 166.196 123.16 166.301 123.365 166.447C123.571 166.594 123.745 166.78 123.878 166.994C124.012 167.207 124.102 167.446 124.143 167.694C124.185 167.943 124.177 168.197 124.12 168.443C124.063 168.688 123.958 168.92 123.811 169.125C123.664 169.331 123.479 169.505 123.264 169.638C123.05 169.771 122.812 169.861 122.563 169.903L110.347 171.932C109.845 172.015 109.33 171.895 108.915 171.599C108.501 171.303 108.221 170.855 108.137 170.353Z" fill="#6C63FF"/>
<path d="M109.117 176.245C109.034 175.742 109.154 175.228 109.45 174.814C109.746 174.4 110.195 174.12 110.698 174.036L122.913 172.007C123.162 171.965 123.417 171.973 123.663 172.03C123.908 172.087 124.141 172.192 124.346 172.339C124.551 172.485 124.726 172.671 124.859 172.885C124.993 173.099 125.083 173.337 125.124 173.586C125.165 173.834 125.157 174.089 125.1 174.334C125.043 174.58 124.938 174.812 124.792 175.017C124.645 175.222 124.459 175.396 124.245 175.529C124.031 175.663 123.793 175.753 123.544 175.794L111.328 177.823C110.825 177.906 110.31 177.787 109.896 177.491C109.481 177.195 109.201 176.747 109.117 176.245Z" fill="#6C63FF"/>
<path d="M110.098 182.136C110.015 181.634 110.135 181.119 110.431 180.705C110.727 180.291 111.176 180.011 111.678 179.927L123.894 177.898C124.397 177.815 124.912 177.934 125.327 178.23C125.741 178.526 126.021 178.975 126.105 179.477C126.188 179.979 126.069 180.494 125.772 180.908C125.476 181.322 125.027 181.602 124.524 181.685L112.309 183.715C111.806 183.797 111.291 183.678 110.876 183.382C110.462 183.086 110.182 182.638 110.098 182.136Z" fill="#6C63FF"/>
<path d="M97.9158 166.291C97.3821 165.691 96.9866 164.982 96.7571 164.213C96.5277 163.443 96.4698 162.633 96.5876 161.839C96.7055 161.045 96.9961 160.287 97.4392 159.617C97.8822 158.948 98.4668 158.383 99.1518 157.964L92.0046 123.966L101.478 127.605L106.962 160.084C107.591 161.281 107.759 162.666 107.434 163.978C107.109 165.289 106.314 166.436 105.199 167.202C104.084 167.967 102.726 168.297 101.384 168.129C100.042 167.961 98.8078 167.307 97.9158 166.291Z" fill="#FFB8B8"/>
<path d="M94.7622 273.817L102.559 273.817L106.269 243.772L94.7609 243.773L94.7622 273.817Z" fill="#FFB6B6"/>
<path d="M92.7732 271.274L94.9679 271.274L103.536 267.793L108.129 271.274H108.129C110.725 271.274 113.214 272.304 115.049 274.137C116.884 275.97 117.915 278.457 117.915 281.049V281.367L92.7737 281.368L92.7732 271.274Z" fill="black"/>
<path d="M24.3087 263.69L31.2873 267.164L48.0233 241.928L37.7239 236.8L24.3087 263.69Z" fill="#FFB6B6"/>
<path d="M23.6642 260.528L25.6284 261.506L34.8516 262.209L37.4076 267.37L37.4081 267.371C39.7308 268.527 41.4984 270.558 42.3222 273.017C43.146 275.475 42.9585 278.16 41.8009 280.481L41.6591 280.765L19.1572 269.562L23.6642 260.528Z" fill="black"/>
<path d="M98.2168 137.365L48.6396 138.657L49.5018 162.775C49.5018 162.775 48.6396 169.235 50.364 170.957C52.0884 172.68 52.9506 172.68 52.0884 175.695C51.2262 178.709 48.9971 207.514 48.9971 207.514C48.9971 207.514 28.6492 243.455 29.5114 244.317C30.3736 245.178 31.2359 244.317 30.3737 246.47C29.5114 248.623 28.6492 247.762 29.5114 248.623C30.2752 249.446 30.9947 250.309 31.667 251.207H45.7195C45.7195 251.207 46.5053 246.901 46.5053 246.47C46.5053 246.039 47.3675 243.455 47.3675 243.025C47.3675 242.594 71.9193 216.608 71.9193 216.608L77.0926 173.541L89.5947 215.747C89.5947 215.747 89.5947 252.784 90.4569 253.645C91.3191 254.507 91.3191 254.076 90.888 255.799C90.4569 257.521 88.7325 257.091 90.0258 258.383C91.3191 259.675 91.7502 257.521 91.3191 259.675L90.888 261.828L107.451 262.013C107.451 262.013 109.175 258.383 108.313 257.091C107.451 255.799 107.503 256.151 108.554 254.037C109.606 251.923 110.037 251.492 109.606 251.061C109.175 250.631 109.175 248.34 109.175 248.34C109.175 248.34 102.959 163.636 102.959 162.344C102.926 161.679 103.049 161.016 103.317 160.406V158.653L101.666 152.439L98.2168 137.365Z" fill="black"/>
<path d="M72.5458 52.7855L97.3787 102.956L92.5202 163.844L60.7877 160.947L55.0974 60.1125L72.5458 52.7855Z" fill="black"/>
<path d="M107.416 157.122L92.9048 155.797L92.8824 155.613L83.1445 75.0667L85.3238 69.0309C85.8452 67.5978 86.7289 66.324 87.8889 65.333C89.0488 64.342 90.4457 63.6676 91.9437 63.3754C93.0849 63.1558 94.2583 63.1638 95.3963 63.3992C96.5343 63.6347 97.6145 64.0928 98.5745 64.7471C99.5345 65.4014 100.355 66.239 100.99 67.2117C101.625 68.1843 102.06 69.2728 102.272 70.4144L104.878 84.4761L108.575 132.009L107.416 157.122Z" fill="black"/>
<path d="M69.6355 60.2257L72.562 53.2311L81.6196 53.3899L91.0643 66.7361L100.977 108.383C100.977 108.383 104.538 138.805 100.977 140.411C97.4169 142.017 85.349 140.034 85.349 140.034L69.6355 60.2257Z" fill="#6C63FF"/>
<path d="M81.6196 53.3899C81.6196 53.3899 101.131 64.657 101.894 70.5383C102.657 76.4197 105.212 148.405 105.212 148.405L98.3122 143.951L96.4264 117.715L88.0059 63.9995L81.6196 53.3899Z" fill="black"/>
<path d="M77.0137 50.1128C84.3577 50.1128 90.3111 44.1654 90.3111 36.8289C90.3111 29.4925 84.3577 23.5451 77.0137 23.5451C69.6698 23.5451 63.7163 29.4925 63.7163 36.8289C63.7163 44.1654 69.6698 50.1128 77.0137 50.1128Z" fill="#FFB8B8"/>
<path d="M61.9308 28.1005C63.424 25.7929 66.226 24.2549 68.9423 24.6871C69.1951 22.9553 69.9187 21.3261 71.0343 19.9767C72.1498 18.6273 73.6146 17.6095 75.269 17.0342C76.9235 16.4588 78.7043 16.3479 80.4175 16.7136C82.1307 17.0793 83.7106 17.9075 84.9853 19.1081C85.4044 18.8133 85.8927 18.6315 86.4028 18.5805C86.9129 18.5295 87.4275 18.611 87.8969 18.817C88.8318 19.2416 89.6451 19.8938 90.2624 20.7138C91.821 22.6556 92.8235 24.9832 93.163 27.449C93.5025 29.9148 93.1663 32.4264 92.1903 34.7164C92.5223 33.5108 91.3129 32.3766 90.0908 32.1061C88.8689 31.8355 87.5871 32.0915 86.3479 31.9153C84.7597 31.6895 83.332 30.7691 81.7412 30.562C80.4043 30.3879 79.0599 30.7303 77.7562 31.0735C76.4525 31.4167 75.1115 31.7667 73.7727 31.6079C72.4338 31.4491 70.7092 36.5178 70.7324 40.0879C70.7368 40.7644 70.5973 41.633 69.9354 41.7766C69.1203 41.9534 68.648 40.8296 67.8722 40.5234C67.5147 40.421 67.1313 40.4613 66.803 40.6357C66.4746 40.8102 66.2268 41.1052 66.1118 41.4585C66.0141 41.8178 66.0036 42.1952 66.0813 42.5593C66.159 42.9234 66.3227 43.2637 66.5586 43.5518C67.0355 44.1231 67.6016 44.6137 68.235 45.0046L67.9155 45.2701C67.384 45.9715 66.2816 46.0018 65.5155 45.5679C64.783 45.0723 64.1898 44.3975 63.7924 43.6079C62.3752 41.2531 61.132 38.7441 60.6319 36.0422C60.1317 33.3403 60.4378 30.4082 61.9308 28.1005Z" fill="black"/>
<path d="M32.9671 126.48L59.5334 98.0069C60.0718 97.4313 60.8167 97.0924 61.6048 97.0647C62.393 97.0371 63.1599 97.3228 63.7374 97.8593L85.2627 117.902C85.839 118.44 86.1782 119.184 86.2059 119.972C86.2336 120.759 85.9475 121.525 85.4104 122.102L58.8441 150.575C58.3057 151.151 57.5608 151.49 56.7727 151.517C55.9845 151.545 55.2176 151.259 54.6401 150.723L33.1148 130.68C32.5385 130.142 32.1993 129.398 32.1716 128.61C32.1439 127.823 32.43 127.057 32.9671 126.48Z" fill="#E6E6E6"/>
<path d="M42.6423 119.417L59.7216 101.112C60.2258 100.573 60.9234 100.256 61.6616 100.23C62.3997 100.204 63.1179 100.472 63.6588 100.974L82.158 118.199C82.6977 118.703 83.0154 119.4 83.0414 120.137C83.0673 120.875 82.7994 121.592 82.2965 122.133L58.656 147.47C58.1518 148.009 57.4541 148.326 56.716 148.352C55.9778 148.378 55.2596 148.11 54.7187 147.608L43.2589 136.937C40.8548 134.694 39.4398 131.589 39.3242 128.304C39.2086 125.02 40.4019 121.824 42.6423 119.417Z" fill="white"/>
<path d="M57.9515 109.009C58.4441 108.482 59.1259 108.172 59.8472 108.146C60.5684 108.121 61.2703 108.383 61.7988 108.874L74.6317 120.823C75.1598 121.315 75.4707 121.996 75.4961 122.717C75.5215 123.437 75.2592 124.139 74.7669 124.666C74.2747 125.194 73.5927 125.504 72.8712 125.53C72.1497 125.555 71.4477 125.293 70.9195 124.801L58.0867 112.852C57.5593 112.36 57.2488 111.679 57.2235 110.958C57.1981 110.238 57.4599 109.537 57.9515 109.009Z" fill="#E6E6E6"/>
<path d="M52.177 115.198C52.6696 114.671 53.3514 114.361 54.0727 114.335C54.794 114.31 55.4958 114.571 56.0243 115.062L68.8572 127.012C69.1187 127.255 69.3296 127.548 69.4779 127.873C69.6262 128.198 69.7091 128.548 69.7216 128.905C69.7342 129.262 69.6762 129.618 69.5511 129.953C69.426 130.287 69.2362 130.594 68.9924 130.855C68.7487 131.116 68.4558 131.327 68.1305 131.475C67.8053 131.623 67.454 131.706 67.0967 131.719C66.7395 131.731 66.3832 131.673 66.0483 131.548C65.7135 131.423 65.4065 131.234 65.145 130.99L52.3122 119.041C51.7848 118.549 51.4743 117.868 51.4489 117.147C51.4236 116.427 51.6854 115.726 52.177 115.198Z" fill="#E6E6E6"/>
<path d="M46.4025 121.386C46.8952 120.86 47.577 120.549 48.2983 120.524C49.0195 120.499 49.7214 120.76 50.2499 121.251L63.0828 133.201C63.6109 133.692 63.9218 134.373 63.9472 135.094C63.9726 135.815 63.7103 136.516 63.218 137.044C62.7257 137.572 62.0438 137.882 61.3223 137.908C60.6008 137.933 59.8988 137.671 59.3706 137.179L46.5377 125.23C46.0103 124.738 45.6999 124.057 45.6745 123.336C45.6492 122.616 45.911 121.914 46.4025 121.386Z" fill="#E6E6E6"/>
<path d="M77.6263 155.324L68.4416 168.462L68.0135 168.977C67.2696 169.871 66.2421 170.483 65.1016 170.714C64.94 170.746 64.7778 170.77 64.6149 170.786C64.4137 170.807 64.2115 170.815 64.0094 170.811C63.8936 170.809 63.7779 170.803 63.6627 170.793C62.9926 170.735 62.3407 170.545 61.7445 170.234L57.8258 167.5C57.5138 167.283 57.2912 166.96 57.1994 166.591C57.1537 166.409 57.1407 166.22 57.161 166.033C57.1899 165.771 57.2843 165.521 57.4356 165.305L68.7452 149.128C68.9852 148.785 69.3514 148.552 69.7635 148.479C70.1755 148.406 70.5998 148.499 70.9432 148.738L77.2363 153.128C77.2512 153.139 77.2656 153.149 77.2802 153.16C77.2896 153.167 77.299 153.174 77.3079 153.182C77.3205 153.191 77.3328 153.201 77.3444 153.211C77.3599 153.223 77.3747 153.236 77.3892 153.249C77.4024 153.261 77.4156 153.274 77.4285 153.286L77.4362 153.293C77.4526 153.309 77.4689 153.325 77.4843 153.342C77.5 153.358 77.5155 153.376 77.5301 153.393C77.5408 153.405 77.5515 153.418 77.5618 153.431L77.5629 153.432C77.5932 153.47 77.6219 153.509 77.6486 153.55C77.6571 153.562 77.6652 153.575 77.673 153.588L77.6766 153.593C77.6831 153.604 77.6893 153.614 77.6952 153.625C77.7135 153.656 77.7305 153.688 77.7467 153.72C77.7731 153.774 77.7966 153.829 77.817 153.885C77.8236 153.903 77.8295 153.921 77.835 153.94C77.84 153.954 77.8447 153.969 77.8486 153.985L77.8498 153.988L77.8514 153.994C77.8555 154.008 77.859 154.021 77.8622 154.034C77.8688 154.059 77.8745 154.085 77.8796 154.11C77.8811 154.117 77.8827 154.124 77.884 154.132C77.8855 154.139 77.8865 154.146 77.8878 154.153C77.8893 154.16 77.8903 154.167 77.8914 154.174L77.8935 154.185C77.8966 154.206 77.8992 154.227 77.9014 154.248C77.9043 154.274 77.9066 154.3 77.9078 154.326C77.9093 154.348 77.9102 154.369 77.9105 154.39C77.9111 154.41 77.911 154.429 77.9107 154.449C77.9108 154.454 77.9106 154.458 77.9102 154.463C77.91 154.483 77.9089 154.503 77.9078 154.523C77.9048 154.573 77.8989 154.623 77.8911 154.673C77.888 154.691 77.8848 154.709 77.881 154.727C77.8769 154.749 77.872 154.771 77.8669 154.792C77.8651 154.801 77.8628 154.809 77.8607 154.817C77.8577 154.829 77.8543 154.841 77.8509 154.853C77.8471 154.866 77.8431 154.879 77.8391 154.892L77.8289 154.923C77.8227 154.942 77.816 154.96 77.8091 154.978C77.805 154.989 77.8008 155 77.7961 155.011C77.7644 155.09 77.7265 155.165 77.6827 155.238C77.677 155.246 77.6719 155.255 77.6662 155.264C77.6535 155.284 77.6402 155.304 77.6263 155.324Z" fill="white"/>
<path d="M71.4063 155.823C72.1509 155.823 72.7546 155.22 72.7546 154.476C72.7546 153.732 72.1509 153.129 71.4063 153.129C70.6617 153.129 70.0581 153.732 70.0581 154.476C70.0581 155.22 70.6617 155.823 71.4063 155.823Z" fill="#6C63FF"/>
<path d="M56.1756 168.709C55.6419 168.109 55.2464 167.399 55.0169 166.63C54.7874 165.861 54.7296 165.05 54.8474 164.257C54.9653 163.463 55.2559 162.704 55.6989 162.034C56.142 161.365 56.7266 160.8 57.4116 160.381L50.2644 126.384L59.7374 130.022L65.2214 162.501C65.8506 163.698 66.0186 165.083 65.6936 166.395C65.3686 167.707 64.5733 168.854 63.4583 169.619C62.3433 170.384 60.9861 170.714 59.6438 170.546C58.3015 170.378 57.0675 169.725 56.1756 168.709Z" fill="#FFB8B8"/>
<path d="M50.9273 154.913L47.0719 130.098L45.6233 82.4401L46.6999 68.1558C46.7873 66.9981 47.1031 65.8691 47.6291 64.8339C48.1552 63.7987 48.8811 62.8777 49.765 62.124C50.649 61.3703 51.6735 60.7987 52.7795 60.4423C53.8856 60.0859 55.0513 59.9517 56.2095 60.0473C57.7303 60.1768 59.1917 60.6971 60.4517 61.5576C61.7117 62.4181 62.7275 63.5895 63.4003 64.9581L66.2171 70.7247L65.2114 152.035L50.9273 154.913Z" fill="black"/>
<path d="M66.601 42.2133C66.6093 42.0629 66.6546 41.9168 66.7329 41.788C66.8111 41.6592 66.9199 41.5517 67.0496 41.4748C67.1793 41.398 67.326 41.3542 67.4766 41.3474C67.6273 41.3407 67.7773 41.371 67.9135 41.4359C68.0496 41.5007 68.1676 41.598 68.2572 41.7193C68.3467 41.8405 68.405 41.9819 68.4269 42.1309C68.4488 42.28 68.4336 42.4321 68.3827 42.5739C68.3318 42.7158 68.2467 42.8429 68.1349 42.944L69.6787 45.4784C69.742 45.5823 69.7614 45.7071 69.7326 45.8254C69.7038 45.9436 69.6292 46.0456 69.5251 46.1088C69.4211 46.1721 69.2961 46.1914 69.1778 46.1627C69.0594 46.1339 68.9574 46.0593 68.894 45.9554L67.1583 43.1058C66.9848 43.0324 66.8381 42.9073 66.7384 42.7475C66.6387 42.5878 66.5907 42.4012 66.601 42.2133Z" fill="white"/>
<path d="M67.6843 43.9362C67.7414 44.0493 67.8795 44.0947 67.9927 44.0377C68.106 43.9806 68.1515 43.8427 68.0943 43.7296L67.6807 42.9103C67.6236 42.7972 67.4855 42.7517 67.3723 42.8088C67.2591 42.8658 67.2136 43.0038 67.2707 43.1169L67.6843 43.9362Z" fill="black"/>
</g>
<defs>
<clipPath id="clip0_384_3143">
<rect width="190" height="282" fill="white" transform="translate(-29)"/>
</clipPath>
</defs>
</svg>
